# ProBuilder 5.2.2
# https://unity3d.com/unity/features/worldbuilding/probuilder
# 26/02/2024 14:48:06

mtllib ./Pipe_-_0.mtl
o Pipe - 0

g Pipe - 0
v -0.125 -0.1 0.2165064
v -0.25 -0.1 0
v -0.125 0.1 0.2165064
v -0.25 0.1 0
v 0 -0.1 0
v 0 0.1 0
v 0.125 -0.1 0.2165063
v 0.125 0.1 0.2165063
v 0.25 -0.1 -2.185569E-08
v 0.25 0.1 -2.185569E-08
v 0.125 -0.1 -0.2165064
v 0.125 0.1 -0.2165064
v -0.125 -0.1 -0.2165064
v -0.125 0.1 -0.2165064

vt 0.125 -0.1
vt -0.125 -0.1
vt 0.125 0.1
vt -0.125 0.1
vt 0 0
vt -0.125 -0.1
vt -0.125 0.1
vt 0.125 -0.1
vt 0.125 0.1
vt -0.25 0
vt -0.125 0.2165064
vt 0.125 0.2165064
vt 0.25 0
vt 0.125 0.2165063
vt -0.125 0.2165063
vt 0.125 -0.2165064
vt -0.125 -0.2165064

vn -0.8660254 0 0.5
vn 0 0 0
vn 5.960464E-08 0 1
vn 0.8660254 0 0.4999999
vn 0.8660254 0 -0.5000001
vn 0 0 -1
vn -0.8660254 0 -0.5000001
vn 0 -1 0
vn 0 -0.5 0
vn 0 1 0
vn 0 0.5 0

usemtl white
f 3/3/1 4/4/1 2/2/1 1/1/1
f 6/5/2 6/5/2 5/5/2 5/5/2
f 8/3/3 3/7/3 1/6/3 7/1/3
f 6/5/2 6/5/2 5/5/2 5/5/2
f 10/3/4 8/7/4 7/6/4 9/1/4
f 6/5/2 6/5/2 5/5/2 5/5/2
f 12/3/5 10/7/5 9/6/5 11/1/5
f 6/5/2 6/5/2 5/5/2 5/5/2
f 14/9/6 12/4/6 11/2/6 13/8/6
f 6/5/2 6/5/2 5/5/2 5/5/2
f 4/3/7 14/7/7 13/6/7 2/1/7
f 6/5/2 6/5/2 5/5/2 5/5/2
f 5/5/9 5/5/2 1/11/9 2/10/8
f 6/5/11 6/5/2 4/13/11 3/12/10
f 5/5/9 5/5/2 7/14/9 1/11/8
f 6/5/11 6/5/2 3/12/11 8/15/10
f 5/5/9 5/5/2 9/13/9 7/14/8
f 6/5/11 6/5/2 8/15/11 10/10/10
f 5/5/9 5/5/2 11/16/9 9/13/8
f 6/5/11 6/5/2 10/10/11 12/17/10
f 5/5/9 5/5/2 13/17/9 11/16/8
f 6/5/11 6/5/2 12/17/11 14/16/10
f 5/5/9 5/5/2 2/10/9 13/17/8
f 6/5/11 6/5/2 14/16/11 4/13/10

g Pipe - 1
v -0.25 -0.09999999 0.4330127
v -0.5 -0.09999999 0
v -0.25 0.09999999 0.4330127
v -0.5 0.09999999 0
v -0.25 -0.09999999 0
v -0.125 -0.09999999 0.2165064
v -0.25 0.09999999 0
v -0.125 0.09999999 0.2165064
v 0.25 -0.09999999 0.4330127
v 0.25 0.09999999 0.4330127
v 0.125 -0.09999999 0.2165064
v 0.125 0.09999999 0.2165064
v 0.5 -0.09999999 0
v 0.5 0.09999999 0
v 0.25 -0.09999999 0
v 0.25 0.09999999 0
v 0.2499999 -0.09999999 -0.4330127
v 0.2499999 0.09999999 -0.4330127
v 0.125 -0.09999999 -0.2165064
v 0.125 0.09999999 -0.2165064
v -0.25 -0.09999999 -0.4330127
v -0.25 0.09999999 -0.4330127
v -0.125 -0.09999999 -0.2165064
v -0.125 0.09999999 -0.2165064

vt 0.25 -0.09999999
vt -0.25 -0.09999999
vt 0.25 0.09999999
vt -0.25 0.09999999
vt 0.125 -0.09999999
vt -0.125 -0.09999999
vt 0.125 0.09999999
vt -0.125 0.09999999
vt -0.2499999 -0.09999999
vt -0.2499999 0.09999999
vt -0.5 0
vt -0.25 0.4330127
vt -0.25 0
vt -0.125 0.2165064
vt 0.25 0.4330127
vt 0.5 0
vt 0.125 0.2165064
vt 0.25 0
vt 0.2499999 -0.4330127
vt 0.125 -0.2165064
vt -0.2499999 -0.4330127
vt -0.125 -0.2165064
vt -0.25 -0.4330127
vt 0.25 -0.4330127

vn -0.8660254 0 0.5
vn 0.8660254 0 -0.5
vn 0 0 1
vn 0 0 -1
vn 0.8660254 0 0.5
vn -0.8660254 0 -0.5
vn 0 -1 0
vn 0 1 0

usemtl blue
f 17/20/12 18/21/12 16/19/12 15/18/12
f 21/24/13 22/25/13 20/23/13 19/22/13
f 24/20/14 17/21/14 15/19/14 23/18/14
f 22/24/15 26/25/15 25/23/15 20/22/15
f 28/20/16 24/21/16 23/19/16 27/18/16
f 26/24/17 30/25/17 29/23/17 25/22/17
f 32/20/13 28/21/13 27/19/13 31/18/13
f 30/24/12 34/25/12 33/23/12 29/22/12
f 36/20/15 32/27/15 31/26/15 35/18/15
f 34/24/14 38/25/14 37/23/14 33/22/14
f 18/20/17 36/21/17 35/19/17 16/18/17
f 38/24/16 21/25/16 19/23/16 37/22/16
f 19/30/18 20/31/18 15/29/18 16/28/18
f 22/34/19 21/35/19 18/33/19 17/32/19
f 20/31/18 25/34/18 23/32/18 15/29/18
f 26/31/19 22/34/19 17/32/19 24/29/19
f 25/34/18 29/35/18 27/33/18 23/32/18
f 30/30/19 26/31/19 24/29/19 28/28/19
f 29/35/18 33/37/18 31/36/18 27/33/18
f 34/39/19 30/30/19 28/28/19 32/38/19
f 33/37/18 37/39/18 35/40/18 31/36/18
f 38/37/19 34/39/19 32/38/19 36/41/19
f 37/39/18 19/30/18 16/28/18 35/40/18
f 21/35/19 38/37/19 36/41/19 18/33/19

g Pipe - 2
v -0.375 -0.09999999 0.6495191
v -0.75 -0.09999999 0
v -0.375 0.09999999 0.6495191
v -0.75 0.09999999 0
v -0.5 -0.09999999 0
v -0.25 -0.09999999 0.4330127
v -0.5 0.09999999 0
v -0.25 0.09999999 0.4330127
v 0.3750001 -0.09999999 0.649519
v 0.3750001 0.09999999 0.649519
v 0.2500001 -0.09999999 0.4330127
v 0.2500001 0.09999999 0.4330127
v 0.75 -0.09999999 -1.192093E-07
v 0.75 0.09999999 -1.192093E-07
v 0.5 -0.09999999 0
v 0.5 0.09999999 0
v 0.3749999 -0.09999999 -0.6495191
v 0.3749999 0.09999999 -0.6495191
v 0.25 -0.09999999 -0.4330127
v 0.25 0.09999999 -0.4330127
v -0.375 -0.09999999 -0.6495191
v -0.375 0.09999999 -0.6495191
v -0.25 -0.09999999 -0.4330127
v -0.25 0.09999999 -0.4330127

vt 0.3750001 -0.09999999
vt -0.375 -0.09999999
vt 0.3750001 0.09999999
vt -0.375 0.09999999
vt 0.25 -0.09999999
vt -0.25 -0.09999999
vt 0.25 0.09999999
vt -0.25 0.09999999
vt 0.375 -0.09999999
vt 0.375 0.09999999
vt -0.375 -0.09999999
vt -0.375 0.09999999
vt -0.2499999 -0.09999999
vt -0.2499999 0.09999999
vt -0.75 0
vt -0.375 0.6495191
vt -0.5 0
vt -0.25 0.4330127
vt 0.375 0.6495191
vt 0.75 0
vt 0.25 0.4330127
vt 0.5 0
vt 0.3749999 -0.6495191
vt 0.25 -0.4330127
vt -0.3749999 -0.6495191
vt -0.25 -0.4330127
vt -0.375 -0.6495191
vt 0.375 -0.6495191

vn -0.8660254 0 0.5
vn 0.8660254 0 -0.5
vn 1.589457E-07 0 1
vn 0 0 -1
vn 0.8660254 0 0.4999999
vn -0.8660254 0 -0.4999999
vn -0.8660254 0 -0.5
vn 0.8660254 0 0.5
vn 0 -1 0
vn 0 1 0

usemtl green
f 41/44/20 42/45/20 40/43/20 39/42/20
f 45/48/21 46/49/21 44/47/21 43/46/21
f 48/51/22 41/45/22 39/43/22 47/50/22
f 46/48/23 50/49/23 49/47/23 44/46/23
f 52/44/24 48/53/24 47/52/24 51/42/24
f 50/48/25 54/55/25 53/54/25 49/46/25
f 56/51/21 52/45/21 51/43/21 55/50/21
f 54/48/20 58/49/20 57/47/20 53/46/20
f 60/44/23 56/53/23 55/52/23 59/42/23
f 58/48/22 62/49/22 61/47/22 57/46/22
f 42/44/26 60/45/26 59/43/26 40/42/26
f 62/48/27 45/49/27 43/47/27 61/46/27
f 43/58/28 44/59/28 39/57/28 40/56/28
f 46/62/29 45/63/29 42/61/29 41/60/29
f 44/59/28 49/62/28 47/60/28 39/57/28
f 50/59/29 46/62/29 41/60/29 48/57/29
f 49/62/28 53/63/28 51/61/28 47/60/28
f 54/58/29 50/59/29 48/57/29 52/56/29
f 53/63/28 57/65/28 55/64/28 51/61/28
f 58/67/29 54/58/29 52/56/29 56/66/29
f 57/65/28 61/67/28 59/68/28 55/64/28
f 62/65/29 58/67/29 56/66/29 60/69/29
f 61/67/28 43/58/28 40/56/28 59/68/28
f 45/63/29 62/65/29 60/69/29 42/61/29

g Pipe - 3
v -0.5 -0.09999999 0.8660254
v -1 -0.09999999 0
v -0.5 0.09999999 0.8660254
v -1 0.09999999 0
v -0.75 -0.09999999 0
v -0.375 -0.09999999 0.6495191
v -0.75 0.09999999 0
v -0.375 0.09999999 0.6495191
v 0.5000001 -0.09999999 0.8660254
v 0.5000001 0.09999999 0.8660254
v 0.3750001 -0.09999999 0.649519
v 0.3750001 0.09999999 0.649519
v 1 -0.09999999 -1.192093E-07
v 1 0.09999999 -1.192093E-07
v 0.75 -0.09999999 -1.192093E-07
v 0.75 0.09999999 -1.192093E-07
v 0.4999999 -0.09999999 -0.8660254
v 0.4999999 0.09999999 -0.8660254
v 0.3749999 -0.09999999 -0.6495191
v 0.3749999 0.09999999 -0.6495191
v -0.4999999 -0.09999999 -0.8660254
v -0.4999999 0.09999999 -0.8660254
v -0.375 -0.09999999 -0.6495191
v -0.375 0.09999999 -0.6495191

vt 0.5000001 -0.09999999
vt -0.5 -0.09999999
vt 0.5000001 0.09999999
vt -0.5 0.09999999
vt 0.375 -0.09999999
vt -0.3750001 -0.09999999
vt 0.375 0.09999999
vt -0.3750001 0.09999999
vt -0.375 -0.09999999
vt -0.375 0.09999999
vt 0.5 -0.09999999
vt 0.5 0.09999999
vt 0.375 -0.09999999
vt 0.375 0.09999999
vt -0.4999999 -0.09999999
vt -0.4999999 0.09999999
vt -1 0
vt -0.5 0.8660254
vt -0.75 0
vt -0.375 0.6495191
vt 0.5 0.8660254
vt 1 0
vt 0.375 0.6495191
vt 0.75 0
vt 0.4999999 -0.8660254
vt 0.3749999 -0.6495191
vt -0.4999999 -0.8660254
vt -0.3749999 -0.6495191
vt -0.375 -0.6495191
vt 0.375 -0.6495191

vn -0.8660254 0 0.5
vn 0.8660254 0 -0.5
vn 0 0 1
vn -1.589457E-07 0 -1
vn 0.8660255 0 0.4999999
vn -0.8660254 0 -0.4999999
vn -0.8660254 0 -0.5000001
vn 0.8660254 0 0.5
vn 0 -1 0
vn 0 1 0

usemtl red
f 65/72/30 66/73/30 64/71/30 63/70/30
f 69/76/31 70/77/31 68/75/31 67/74/31
f 72/72/32 65/73/32 63/71/32 71/70/32
f 70/76/33 74/79/33 73/78/33 68/74/33
f 76/81/34 72/73/34 71/71/34 75/80/34
f 74/83/35 78/77/35 77/75/35 73/82/35
f 80/72/31 76/73/31 75/71/31 79/70/31
f 78/76/30 82/79/30 81/78/30 77/74/30
f 84/81/33 80/85/33 79/84/33 83/80/33
f 82/83/32 86/77/32 85/75/32 81/82/32
f 66/72/36 84/73/36 83/71/36 64/70/36
f 86/76/37 69/77/37 67/75/37 85/74/37
f 67/88/38 68/89/38 63/87/38 64/86/38
f 70/92/39 69/93/39 66/91/39 65/90/39
f 68/89/38 73/92/38 71/90/38 63/87/38
f 74/89/39 70/92/39 65/90/39 72/87/39
f 73/92/38 77/93/38 75/91/38 71/90/38
f 78/88/39 74/89/39 72/87/39 76/86/39
f 77/93/38 81/95/38 79/94/38 75/91/38
f 82/97/39 78/88/39 76/86/39 80/96/39
f 81/95/38 85/98/38 83/96/38 79/94/38
f 86/99/39 82/97/39 80/96/39 84/94/39
f 85/98/38 67/88/38 64/86/38 83/96/38
f 69/93/39 86/99/39 84/94/39 66/91/39

g Pipe - 4
v -0.625 -0.09999999 1.082532
v -1.25 -0.09999999 0
v -0.625 0.09999999 1.082532
v -1.25 0.09999999 0
v -1 -0.09999999 0
v -0.5 -0.09999999 0.8660254
v -1 0.09999999 0
v -0.5 0.09999999 0.8660254
v 0.6250001 -0.09999999 1.082532
v 0.6250001 0.09999999 1.082532
v 0.5000001 -0.09999999 0.8660254
v 0.5000001 0.09999999 0.8660254
v 1.25 -0.09999999 -1.192093E-07
v 1.25 0.09999999 -1.192093E-07
v 1 -0.09999999 -1.192093E-07
v 1 0.09999999 -1.192093E-07
v 0.6249999 -0.09999999 -1.082532
v 0.6249999 0.09999999 -1.082532
v 0.4999999 -0.09999999 -0.8660254
v 0.4999999 0.09999999 -0.8660254
v -0.6249999 -0.09999999 -1.082532
v -0.6249999 0.09999999 -1.082532
v -0.4999999 -0.09999999 -0.8660254
v -0.4999999 0.09999999 -0.8660254

vt 0.6250002 -0.09999999
vt -0.6249999 -0.09999999
vt 0.6250002 0.09999999
vt -0.6249999 0.09999999
vt 0.5 -0.09999999
vt -0.5000001 -0.09999999
vt 0.5 0.09999999
vt -0.5000001 0.09999999
vt 0.6249999 -0.09999999
vt -0.6250002 -0.09999999
vt 0.6249999 0.09999999
vt -0.6250002 0.09999999
vt -0.5 -0.09999999
vt -0.5 0.09999999
vt 0.4999999 -0.09999999
vt 0.4999999 0.09999999
vt -1.25 0
vt -0.625 1.082532
vt -1 0
vt -0.5 0.8660254
vt 0.625 1.082532
vt 1.25 0
vt 0.5 0.8660254
vt 1 0
vt 0.6249999 -1.082532
vt 0.4999999 -0.8660254
vt -0.6249999 -1.082532
vt -0.4999999 -0.8660254

vn -0.8660254 0 0.4999999
vn 0.8660254 0 -0.5
vn 1.907349E-07 0 1
vn 0 0 -1
vn 0.8660254 0 0.4999999
vn -0.8660255 0 -0.4999999
vn -0.8660254 0 0.5000001
vn -0.8660254 0 -0.5000001
vn 0.8660254 0 0.5000001
vn 0 -1 0
vn 0 1 0

usemtl yellow
f 89/102/40 90/103/40 88/101/40 87/100/40
f 93/106/41 94/107/41 92/105/41 91/104/41
f 96/110/42 89/111/42 87/109/42 95/108/42
f 94/106/43 98/107/43 97/105/43 92/104/43
f 100/102/44 96/111/44 95/109/44 99/100/44
f 98/106/45 102/113/45 101/112/45 97/104/45
f 104/102/41 100/111/41 99/109/41 103/100/41
f 102/106/46 106/107/46 105/105/46 101/104/46
f 108/110/43 104/103/43 103/101/43 107/108/43
f 106/115/42 110/113/42 109/112/42 105/114/42
f 90/102/47 108/111/47 107/109/47 88/100/47
f 110/106/48 93/107/48 91/105/48 109/104/48
f 91/118/49 92/119/49 87/117/49 88/116/49
f 94/122/50 93/123/50 90/121/50 89/120/50
f 92/119/49 97/122/49 95/120/49 87/117/49
f 98/119/50 94/122/50 89/120/50 96/117/50
f 97/122/49 101/123/49 99/121/49 95/120/49
f 102/118/50 98/119/50 96/117/50 100/116/50
f 101/123/49 105/125/49 103/124/49 99/121/49
f 106/127/50 102/118/50 100/116/50 104/126/50
f 105/125/49 109/127/49 107/126/49 103/124/49
f 110/125/50 106/127/50 104/126/50 108/124/50
f 109/127/49 91/118/49 88/116/49 107/126/49
f 93/123/50 110/125/50 108/124/50 90/121/50

g Pipe - 5
v -0.75 -0.09999999 1.299038
v -1.5 -0.09999999 0
v -0.75 0.09999999 1.299038
v -1.5 0.09999999 0
v -1.25 -0.09999999 0
v -0.625 -0.09999999 1.082532
v -1.25 0.09999999 0
v -0.625 0.09999999 1.082532
v 0.7500001 -0.09999999 1.299038
v 0.7500001 0.09999999 1.299038
v 0.6250001 -0.09999999 1.082532
v 0.6250001 0.09999999 1.082532
v 1.5 -0.09999999 -1.192093E-07
v 1.5 0.09999999 -1.192093E-07
v 1.25 -0.09999999 -1.192093E-07
v 1.25 0.09999999 -1.192093E-07
v 0.7499999 -0.09999999 -1.299038
v 0.7499999 0.09999999 -1.299038
v 0.6249999 -0.09999999 -1.082532
v 0.6249999 0.09999999 -1.082532
v -0.7499999 -0.09999999 -1.299038
v -0.7499999 0.09999999 -1.299038
v -0.6249999 -0.09999999 -1.082532
v -0.6249999 0.09999999 -1.082532

vt 0.7500001 -0.09999999
vt -0.75 -0.09999999
vt 0.7500001 0.09999999
vt -0.75 0.09999999
vt 0.6249999 -0.09999999
vt -0.6250002 -0.09999999
vt 0.6249999 0.09999999
vt -0.6250002 0.09999999
vt 0.7499999 -0.09999999
vt 0.7499999 0.09999999
vt 0.6250002 -0.09999999
vt -0.6249999 -0.09999999
vt 0.6250002 0.09999999
vt -0.6249999 0.09999999
vt -0.7499999 -0.09999999
vt -0.7499999 0.09999999
vt -1.5 0
vt -0.75 1.299038
vt -1.25 0
vt -0.625 1.082532
vt 0.75 1.299038
vt 1.5 0
vt 0.625 1.082532
vt 1.25 0
vt 0.7499999 -1.299038
vt 0.6249999 -1.082532
vt -0.7499999 -1.299038
vt -0.6249999 -1.082532

vn -0.8660254 0 0.5
vn 0.8660254 0 -0.4999999
vn 1.589457E-07 0 1
vn -1.907349E-07 0 -1
vn 0.8660254 0 0.4999999
vn -0.8660254 0 -0.4999999
vn 0.8660253 0 -0.5000001
vn -0.8660254 0 -0.5000001
vn 0.8660254 0 0.5000001
vn 0 -1 0
vn 0 1 0

usemtl white
f 113/130/51 114/131/51 112/129/51 111/128/51
f 117/134/52 118/135/52 116/133/52 115/132/52
f 120/137/53 113/131/53 111/129/53 119/136/53
f 118/140/54 122/141/54 121/139/54 116/138/54
f 124/130/55 120/143/55 119/142/55 123/128/55
f 122/140/56 126/135/56 125/133/56 121/138/56
f 128/137/57 124/131/57 123/129/57 127/136/57
f 126/140/51 130/135/51 129/133/51 125/138/51
f 132/137/54 128/143/54 127/142/54 131/136/54
f 130/134/53 134/141/53 133/139/53 129/132/53
f 114/130/58 132/131/58 131/129/58 112/128/58
f 134/140/59 117/135/59 115/133/59 133/138/59
f 115/146/60 116/147/60 111/145/60 112/144/60
f 118/150/61 117/151/61 114/149/61 113/148/61
f 116/147/60 121/150/60 119/148/60 111/145/60
f 122/147/61 118/150/61 113/148/61 120/145/61
f 121/150/60 125/151/60 123/149/60 119/148/60
f 126/146/61 122/147/61 120/145/61 124/144/61
f 125/151/60 129/153/60 127/152/60 123/149/60
f 130/155/61 126/146/61 124/144/61 128/154/61
f 129/153/60 133/155/60 131/154/60 127/152/60
f 134/153/61 130/155/61 128/154/61 132/152/61
f 133/155/60 115/146/60 112/144/60 131/154/60
f 117/151/61 134/153/61 132/152/61 114/149/61

g Pipe - 6
v -0.875 -0.09999999 1.515544
v -1.75 -0.09999999 0
v -0.875 0.09999999 1.515544
v -1.75 0.09999999 0
v -1.5 -0.09999999 0
v -0.75 -0.09999999 1.299038
v -1.5 0.09999999 0
v -0.75 0.09999999 1.299038
v 0.8750001 -0.09999999 1.515544
v 0.8750001 0.09999999 1.515544
v 0.7500001 -0.09999999 1.299038
v 0.7500001 0.09999999 1.299038
v 1.75 -0.09999999 -1.192093E-07
v 1.75 0.09999999 -1.192093E-07
v 1.5 -0.09999999 -1.192093E-07
v 1.5 0.09999999 -1.192093E-07
v 0.8749998 -0.09999999 -1.515545
v 0.8749998 0.09999999 -1.515545
v 0.7499998 -0.09999999 -1.299038
v 0.7499998 0.09999999 -1.299038
v -0.8749998 -0.09999999 -1.515545
v -0.8749998 0.09999999 -1.515545
v -0.7499998 -0.09999999 -1.299038
v -0.7499998 0.09999999 -1.299038

vt 0.8750001 -0.09999999
vt -0.875 -0.09999999
vt 0.8750001 0.09999999
vt -0.875 0.09999999
vt 0.75 -0.09999999
vt -0.7500001 -0.09999999
vt 0.75 0.09999999
vt -0.7500001 0.09999999
vt -0.7499999 -0.09999999
vt -0.7499999 0.09999999
vt 0.8749999 -0.09999999
vt 0.8749999 0.09999999
vt 0.7499999 -0.09999999
vt 0.7499999 0.09999999
vt -0.8749998 -0.09999999
vt -0.8749998 0.09999999
vt -1.75 0
vt -0.875 1.515544
vt -1.5 0
vt -0.75 1.299038
vt 0.875 1.515544
vt 1.75 0
vt 0.75 1.299038
vt 1.5 0
vt 0.8749998 -1.515545
vt 0.7499998 -1.299038
vt -0.8749998 -1.515545
vt -0.7499998 -1.299038

vn -0.8660254 0 0.5
vn 0.8660254 0 -0.5
vn 0 0 1
vn -1.589457E-07 0 -1
vn 0.8660254 0 0.4999999
vn -0.8660254 0 -0.4999999
vn -0.8660254 0 -0.5000001
vn 0.8660253 0 0.5000001
vn 0 -1 0
vn 0 1 0

usemtl blue
f 137/158/62 138/159/62 136/157/62 135/156/62
f 141/162/63 142/163/63 140/161/63 139/160/63
f 144/158/64 137/159/64 135/157/64 143/156/64
f 142/162/65 146/165/65 145/164/65 140/160/65
f 148/167/66 144/159/66 143/157/66 147/166/66
f 146/169/67 150/163/67 149/161/67 145/168/67
f 152/158/63 148/159/63 147/157/63 151/156/63
f 150/162/62 154/165/62 153/164/62 149/160/62
f 156/167/65 152/171/65 151/170/65 155/166/65
f 154/169/64 158/165/64 157/164/64 153/168/64
f 138/158/68 156/159/68 155/157/68 136/156/68
f 158/162/69 141/163/69 139/161/69 157/160/69
f 139/174/70 140/175/70 135/173/70 136/172/70
f 142/178/71 141/179/71 138/177/71 137/176/71
f 140/175/70 145/178/70 143/176/70 135/173/70
f 146/175/71 142/178/71 137/176/71 144/173/71
f 145/178/70 149/179/70 147/177/70 143/176/70
f 150/174/71 146/175/71 144/173/71 148/172/71
f 149/179/70 153/181/70 151/180/70 147/177/70
f 154/183/71 150/174/71 148/172/71 152/182/71
f 153/181/70 157/183/70 155/182/70 151/180/70
f 158/181/71 154/183/71 152/182/71 156/180/71
f 157/183/70 139/174/70 136/172/70 155/182/70
f 141/179/71 158/181/71 156/180/71 138/177/71

g Pipe - 7
v -1 -0.09999999 1.732051
v -2 -0.09999999 0
v -1 0.09999999 1.732051
v -2 0.09999999 0
v -1.75 -0.09999999 0
v -0.875 -0.09999999 1.515544
v -1.75 0.09999999 0
v -0.875 0.09999999 1.515544
v 1 -0.09999999 1.732051
v 1 0.09999999 1.732051
v 0.8750001 -0.09999999 1.515544
v 0.8750001 0.09999999 1.515544
v 2 -0.09999999 -1.192093E-07
v 2 0.09999999 -1.192093E-07
v 1.75 -0.09999999 -1.192093E-07
v 1.75 0.09999999 -1.192093E-07
v 0.9999998 -0.09999999 -1.732051
v 0.9999998 0.09999999 -1.732051
v 0.8749998 -0.09999999 -1.515545
v 0.8749998 0.09999999 -1.515545
v -0.9999998 -0.09999999 -1.732051
v -0.9999998 0.09999999 -1.732051
v -0.8749998 -0.09999999 -1.515545
v -0.8749998 0.09999999 -1.515545

vt 1 -0.09999999
vt -1 -0.09999999
vt 1 0.09999999
vt -1 0.09999999
vt 0.875 -0.09999999
vt -0.8750001 -0.09999999
vt 0.875 0.09999999
vt -0.8750001 0.09999999
vt 0.9999999 -0.09999999
vt 0.9999999 0.09999999
vt -0.8749999 -0.09999999
vt -0.8749999 0.09999999
vt -0.9999998 -0.09999999
vt -0.9999998 0.09999999
vt 0.8749998 -0.09999999
vt 0.8749998 0.09999999
vt -2 0
vt -1 1.732051
vt -1.75 0
vt -0.875 1.515544
vt 1 1.732051
vt 2 0
vt 0.875 1.515544
vt 1.75 0
vt 0.9999998 -1.732051
vt 0.8749998 -1.515545
vt -0.9999998 -1.732051
vt -0.8749998 -1.515545

vn -0.8660254 0 0.5
vn 0.8660254 0 -0.5
vn 0 0 1
vn 0 0 -1
vn 0.8660254 0 0.4999999
vn -0.8660254 0 -0.4999999
vn -0.8660254 0 -0.5000001
vn 0.8660254 0 0.5000001
vn 0 -1 0
vn 0 1 0

usemtl green
f 161/186/72 162/187/72 160/185/72 159/184/72
f 165/190/73 166/191/73 164/189/73 163/188/73
f 168/186/74 161/187/74 159/185/74 167/184/74
f 166/190/75 170/191/75 169/189/75 164/188/75
f 172/193/76 168/187/76 167/185/76 171/192/76
f 170/190/77 174/195/77 173/194/77 169/188/77
f 176/186/73 172/187/73 171/185/73 175/184/73
f 174/190/72 178/191/72 177/189/72 173/188/72
f 180/193/75 176/197/75 175/196/75 179/192/75
f 178/199/74 182/195/74 181/194/74 177/198/74
f 162/186/78 180/187/78 179/185/78 160/184/78
f 182/190/79 165/191/79 163/189/79 181/188/79
f 163/202/80 164/203/80 159/201/80 160/200/80
f 166/206/81 165/207/81 162/205/81 161/204/81
f 164/203/80 169/206/80 167/204/80 159/201/80
f 170/203/81 166/206/81 161/204/81 168/201/81
f 169/206/80 173/207/80 171/205/80 167/204/80
f 174/202/81 170/203/81 168/201/81 172/200/81
f 173/207/80 177/209/80 175/208/80 171/205/80
f 178/211/81 174/202/81 172/200/81 176/210/81
f 177/209/80 181/211/80 179/210/80 175/208/80
f 182/209/81 178/211/81 176/210/81 180/208/81
f 181/211/80 163/202/80 160/200/80 179/210/80
f 165/207/81 182/209/81 180/208/81 162/205/81

g Pipe - 8
v -1.125 -0.09999999 1.948557
v -2.25 -0.09999999 0
v -1.125 0.09999999 1.948557
v -2.25 0.09999999 0
v -2 -0.09999999 0
v -1 -0.09999999 1.732051
v -2 0.09999999 0
v -1 0.09999999 1.732051
v 1.125 -0.09999999 1.948557
v 1.125 0.09999999 1.948557
v 1 -0.09999999 1.732051
v 1 0.09999999 1.732051
v 2.25 -0.09999999 -2.384186E-07
v 2.25 0.09999999 -2.384186E-07
v 2 -0.09999999 -1.192093E-07
v 2 0.09999999 -1.192093E-07
v 1.125 -0.09999999 -1.948557
v 1.125 0.09999999 -1.948557
v 0.9999998 -0.09999999 -1.732051
v 0.9999998 0.09999999 -1.732051
v -1.125 -0.09999999 -1.948557
v -1.125 0.09999999 -1.948557
v -0.9999998 -0.09999999 -1.732051
v -0.9999998 0.09999999 -1.732051

vt 1.125 -0.09999999
vt -1.125 -0.09999999
vt 1.125 0.09999999
vt -1.125 0.09999999
vt 1 -0.09999999
vt -1 -0.09999999
vt 1 0.09999999
vt -1 0.09999999
vt 1.125 -0.09999999
vt -1.125 -0.09999999
vt 1.125 0.09999999
vt -1.125 0.09999999
vt -0.9999999 -0.09999999
vt -0.9999999 0.09999999
vt 0.9999998 -0.09999999
vt 0.9999998 0.09999999
vt -2.25 0
vt -1.125 1.948557
vt -2 0
vt -1 1.732051
vt 1.125 1.948557
vt 2.25 0
vt 1 1.732051
vt 2 0
vt 1.125 -1.948557
vt 0.9999998 -1.732051
vt -1.125 -1.948557
vt -0.9999998 -1.732051

vn -0.8660254 0 0.5
vn 0.8660254 0 -0.5
vn 1.059638E-07 0 1
vn 0 0 -1
vn 0.8660254 0 0.4999999
vn -0.8660254 0 -0.4999999
vn -0.8660254 0 0.5000001
vn -0.8660254 0 -0.5000001
vn 0.8660254 0 0.5000001
vn 0 -1 0
vn 0 1 0

usemtl red
f 185/214/82 186/215/82 184/213/82 183/212/82
f 189/218/83 190/219/83 188/217/83 187/216/83
f 192/222/84 185/223/84 183/221/84 191/220/84
f 190/218/85 194/219/85 193/217/85 188/216/85
f 196/214/86 192/223/86 191/221/86 195/212/86
f 194/218/87 198/225/87 197/224/87 193/216/87
f 200/222/83 196/223/83 195/221/83 199/220/83
f 198/218/88 202/219/88 201/217/88 197/216/88
f 204/222/85 200/215/85 199/213/85 203/220/85
f 202/227/84 206/225/84 205/224/84 201/226/84
f 186/214/89 204/223/89 203/221/89 184/212/89
f 206/218/90 189/219/90 187/217/90 205/216/90
f 187/230/91 188/231/91 183/229/91 184/228/91
f 190/234/92 189/235/92 186/233/92 185/232/92
f 188/231/91 193/234/91 191/232/91 183/229/91
f 194/231/92 190/234/92 185/232/92 192/229/92
f 193/234/91 197/235/91 195/233/91 191/232/91
f 198/230/92 194/231/92 192/229/92 196/228/92
f 197/235/91 201/237/91 199/236/91 195/233/91
f 202/239/92 198/230/92 196/228/92 200/238/92
f 201/237/91 205/239/91 203/238/91 199/236/91
f 206/237/92 202/239/92 200/238/92 204/236/92
f 205/239/91 187/230/91 184/228/91 203/238/91
f 189/235/92 206/237/92 204/236/92 186/233/92

g Pipe - 9
v -1.25 -0.09999999 2.165064
v -2.5 -0.09999999 0
v -1.25 0.09999999 2.165064
v -2.5 0.09999999 0
v -2.25 -0.09999999 0
v -1.125 -0.09999999 1.948557
v -2.25 0.09999999 0
v -1.125 0.09999999 1.948557
v 1.25 -0.09999999 2.165063
v 1.25 0.09999999 2.165063
v 1.125 -0.09999999 1.948557
v 1.125 0.09999999 1.948557
v 2.5 -0.09999999 -2.384186E-07
v 2.5 0.09999999 -2.384186E-07
v 2.25 -0.09999999 -2.384186E-07
v 2.25 0.09999999 -2.384186E-07
v 1.25 -0.09999999 -2.165064
v 1.25 0.09999999 -2.165064
v 1.125 -0.09999999 -1.948557
v 1.125 0.09999999 -1.948557
v -1.25 -0.09999999 -2.165064
v -1.25 0.09999999 -2.165064
v -1.125 -0.09999999 -1.948557
v -1.125 0.09999999 -1.948557

vt 1.25 -0.09999999
vt -1.25 -0.09999999
vt 1.25 0.09999999
vt -1.25 0.09999999
vt 1.125 -0.09999999
vt -1.125 -0.09999999
vt 1.125 0.09999999
vt -1.125 0.09999999
vt 1.25 -0.09999999
vt -1.25 -0.09999999
vt 1.25 0.09999999
vt -1.25 0.09999999
vt 1.125 -0.09999999
vt -1.125 -0.09999999
vt 1.125 0.09999999
vt -1.125 0.09999999
vt -2.5 0
vt -1.25 2.165064
vt -2.25 0
vt -1.125 1.948557
vt 1.25 2.165064
vt 2.5 0
vt 1.125 1.948557
vt 2.25 0
vt 1.25 -2.165064
vt 1.125 -1.948557
vt -1.25 -2.165064
vt -1.125 -1.948557

vn -0.8660254 0 0.5
vn 0.8660254 0 -0.5
vn 9.536743E-08 0 1
vn -2.119276E-07 0 -1
vn 0.8660254 0 0.4999999
vn -0.8660254 0 -0.5
vn 0.8660254 0 -0.5000001
vn -0.8660253 0 0.5000001
vn -0.8660254 0 -0.5000001
vn 0.8660254 0 0.5000001
vn 0 -1 0
vn 0 1 0

usemtl yellow
f 209/242/93 210/243/93 208/241/93 207/240/93
f 213/246/94 214/247/94 212/245/94 211/244/94
f 216/250/95 209/251/95 207/249/95 215/248/95
f 214/254/96 218/255/96 217/253/96 212/252/96
f 220/242/97 216/251/97 215/249/97 219/240/97
f 218/246/98 222/247/98 221/245/98 217/244/98
f 224/242/99 220/251/99 219/249/99 223/240/99
f 222/254/100 226/255/100 225/253/100 221/252/100
f 228/250/96 224/243/96 223/241/96 227/248/96
f 226/246/95 230/255/95 229/253/95 225/244/95
f 210/242/101 228/251/101 227/249/101 208/240/101
f 230/254/102 213/247/102 211/245/102 229/252/102
f 211/258/103 212/259/103 207/257/103 208/256/103
f 214/262/104 213/263/104 210/261/104 209/260/104
f 212/259/103 217/262/103 215/260/103 207/257/103
f 218/259/104 214/262/104 209/260/104 216/257/104
f 217/262/103 221/263/103 219/261/103 215/260/103
f 222/258/104 218/259/104 216/257/104 220/256/104
f 221/263/103 225/265/103 223/264/103 219/261/103
f 226/267/104 222/258/104 220/256/104 224/266/104
f 225/265/103 229/267/103 227/266/103 223/264/103
f 230/265/104 226/267/104 224/266/104 228/264/104
f 229/267/103 211/258/103 208/256/103 227/266/103
f 213/263/104 230/265/104 228/264/104 210/261/104

